<svg width="1080" height="1080" viewBox="0 0 1080 1080" fill="none" xmlns="http://www.w3.org/2000/svg">
<g clip-path="url(#clip0_1_10)">
<path d="M605.109 472.95C604.425 476.406 600.472 479.955 593.364 483.501C581.821 489.275 568.575 492.519 547.649 494.7C541.781 495.312 523.09 496.496 507.295 494.658C484.748 491.957 471.75 486.117 471.634 478.637C471.512 468.901 495.767 458.677 528.047 454.854C538.253 453.682 552.152 453.532 563.455 454.47C582.959 456.126 597.705 460.69 602.905 466.679C604.792 468.854 605.515 470.904 605.109 472.95ZM806.959 433.849C766.338 417.903 700.15 409.303 626.709 409.752C553.894 410.197 501.998 415.498 462.689 426.833C431.375 435.862 411.68 448.289 407.043 461.907C380.297 458.11 363.621 450.248 363.454 441.321C363.329 434.606 373.272 417.187 468.079 400.493C596.414 377.896 700.966 388.135 702.01 388.243L704.087 380.297C703.287 380.207 623.165 371.447 515.403 382.858C463.504 388.354 415.739 397.024 380.909 407.27C354.138 415.145 322.225 427.817 322.225 443.465C322.225 468.415 397.834 473.749 406.499 474.278C412.51 491.229 445.899 501.994 506.322 505.365C548.519 507.721 586.836 501.517 613.699 488.74C624.157 483.767 630.519 477.365 631.15 471.177C631.435 468.393 630.567 465.749 628.619 463.389C645.9 467.667 655.631 473.233 656.836 479.565C657.543 483.28 656.298 487.105 653.136 490.932C644.717 501.126 623.545 510.402 593.521 517.051C558.615 524.781 512.085 526.443 459.322 526.443C399.091 526.443 343.566 519.318 303.01 506.368C265.153 494.281 247.578 479.502 247.374 463.157C246.977 431.324 304.362 409.373 304.982 409.146L302.374 401.8C294.017 403.978 221.002 425.049 221 466.791C220.999 476.199 225.215 485.18 233.529 493.486C251.005 510.946 302.829 539.652 453.927 540.086C596.741 540.497 662.997 512.777 671.236 487.417C697 491.367 713.032 499.238 713.149 508.028C713.239 514.729 703.28 532.102 609.106 548.684C480.769 571.282 376.213 561.044 375.174 560.937L372.765 570.155C373.248 570.208 403.24 573.002 450.543 573C481.242 573 519.371 570.81 561.78 566.319C613.619 560.829 661.296 552.16 696.025 541.907C722.681 534.038 754.456 521.37 754.456 505.712C754.456 494.932 740.796 486.526 713.856 480.727C695.353 476.744 676.531 475.31 671.49 474.981C668.027 458.187 615.349 437.538 524.13 445.509C478.427 449.502 445.614 465.327 445.796 480.053C445.827 482.002 446.389 483.895 447.476 485.705C431.204 481.479 422.181 476.101 421.322 470.089C420.818 466.568 422.202 462.89 425.434 459.155C440.91 441.273 501.222 422.591 620.789 423.772C678.906 424.345 733.948 429.736 773.381 442.796C809.679 454.816 829.288 469.77 829.494 486.293C829.893 518.205 773.42 538.935 772.81 539.13L775.564 547.02C783.917 544.84 857.15 524.526 857.15 482.817C857.15 471.888 850.628 450.993 806.959 433.849Z" fill="#FF0005"/>
<path d="M738.94 671.984C744.237 672.208 755.495 672.208 767.341 672.208C779.187 672.208 783.455 670.192 783.455 666.085C783.455 661.829 779.261 660.411 767.562 660.411C761.97 660.411 746.298 660.485 738.866 660.709C738.866 664.517 738.866 668.325 738.94 671.984ZM782.425 678.779V679.077C795.301 680.347 801.187 682.437 803.542 690.949C804.866 695.803 806.043 699.835 807 702H788.679C785.368 702 784.779 701.253 782.94 693.936C781.321 687.365 778.893 686.171 765.502 686.171H739.161C739.308 692.517 739.602 697.968 740.043 702H719C719.147 693.861 719.294 686.021 719.294 674C719.294 662.128 719.221 654.064 719 646H773.742C793.682 646 803.027 651.301 803.027 662.651C803.027 672.283 796.846 677.211 782.425 678.779Z" fill="#FF0005"/>
<path d="M714 673.351C714 691.621 699.9 704 665.5 704C631.1 704 617 691.621 617 673.351C617 654.335 632.576 643 665.5 643C698.424 643 714 654.335 714 673.351ZM665.5 687.818C686.243 687.818 693.256 682.449 693.256 673.425C693.256 664.253 686.096 659.182 665.5 659.182C644.904 659.182 637.744 664.253 637.744 673.425C637.744 682.449 644.83 687.818 665.5 687.818Z" fill="#FF0005"/>
<path d="M538 646H618C617.85 648.162 617.85 651.443 617.85 654.352C617.85 657.185 617.85 660.69 618 663.076C607.578 662.778 597.231 662.778 588.234 662.778C588.234 681.494 588.309 697.675 588.534 702C585.76 701.776 581.112 701.776 577.963 701.776C574.814 701.776 570.39 701.776 567.391 702C567.616 697.675 567.766 681.569 567.766 662.778C558.769 662.778 548.422 662.778 538 663.076C538.075 660.69 538.075 657.26 538.075 654.352C538.075 651.443 538.075 648.237 538 646Z" fill="#FF0005"/>
<path d="M511.343 646H540.639C530.677 653.317 510.384 668.325 499.611 674.523C504.26 676.763 510.089 679.973 515.992 684.005C532.669 695.504 539.532 699.835 543 702H514.812C510.606 702 508.613 701.179 506.326 699.536C497.84 693.488 486.033 684.827 476.588 680.571C476.588 688.336 476.588 694.683 476.957 702H456C456.221 692.667 456.369 685.872 456.369 674C456.369 662.128 456.221 655.184 456 646H476.957C476.514 654.587 476.588 661.979 476.588 672.133H476.662C481.679 668.773 487.14 665.189 491.641 661.829C501.677 654.587 506.695 650.181 511.343 646Z" fill="#FF0005"/>
<path d="M369 646H448C447.925 647.643 447.851 650.256 447.851 652.571C447.851 654.96 447.851 657.648 448 659.216C432.454 659.141 404.352 659.067 390.376 659.067V667.653C406.519 667.653 434.696 667.653 447.178 667.429C447.103 670.341 447.028 676.315 447.103 679.451C434.846 679.301 406.37 679.152 390.376 679.152V687.888C404.352 687.888 433.426 687.813 448 687.739C447.851 689.531 447.851 692.368 447.851 694.981C447.851 697.371 447.851 700.133 448 702H369C369.299 694.384 369.299 685.947 369.299 674C369.299 662.128 369.299 653.541 369 646Z" fill="#FF0005"/>
<path d="M293.361 682.446V683.112C293.361 686.882 298.105 688.361 315.474 688.361C334.595 688.361 337.003 687.104 337.003 684.738C337.003 682.224 335.69 680.967 312.701 680.228C281.685 679.193 273.438 674.018 273.438 662.558C273.438 650.358 284.385 644 314.015 644C345.542 644 355.467 647.992 355.467 660.857C355.467 661.966 355.467 663.075 355.394 664.332C353.205 664.184 349.337 664.11 345.615 664.11C341.747 664.11 337.879 664.184 335.69 664.332V662.927C335.69 659.157 333.063 657.9 313.723 657.9C295.916 657.9 293.288 659.009 293.288 661.227C293.288 663.445 294.675 664.406 319.123 665.663C348.096 667.142 357 671.43 357 683.851C357 696.789 346.856 703 315.693 703C283.874 703 273 697.603 273 686.365C273 685.034 273.073 683.629 273.292 682.15C275.846 682.446 279.714 682.668 283.363 682.668C287.085 682.668 290.588 682.594 293.361 682.446Z" fill="#FF0005"/>
</g>
<defs>
<clipPath id="clip0_1_10">
<rect width="1080" height="1080" fill="white"/>
</clipPath>
</defs>
</svg>
